<svg>
	<symbol
		xmlns="http://www.w3.org/2000/svg" id="navbar-brand">
		<path d="M45.22,131.87C31.84,134.55,11.77,152,11.77,152A197.77,197.77,0,0,1,.39,72.32l12,6.69s2.67-42.82,36.13-54.86a49.78,49.78,0,0,0-4.63,7.67A51.41,51.41,0,0,0,39.2,46.88C54.64,31.88,94.27,1.25,146.26,0,203.8-1.28,256,30.82,256,30.82s-34.79,4-40.15,37.47c0,0,10.71,5.35,22.75-8,0,0,8,13.38,0,45.5,0,0,5.36,2.67,12-5.35,0,0,6.69,25.42-14.72,52.19,0,0-12-20.08-25.43-22.75,0,0,8-1.34,12,0,0,0-12-16.06-17.4-16.06,0,0,9.37-1.34,12,0,0,0-8-20.08-68.25-26.77v16.06s-6.69-1.34-18.73-10.7c0,0,2.68,12,10.71,16,0,0-22.75,1.34-40.15-20.07,0,0-45.5-2.67-66.91,25.43,0,0,13.38,1.34,16.06,4,0,0-13.38,4-14.72,6.69Z"/>
		<path d="M13.78,143.25S4.41,101.76,68.64,79c0,0-22.75,0-28.1,2.68,0,0,20.07-24.09,87-26.76,0,0-8-10.71-50.85-5.36,0,0,48.18-53.52,164.6-21.41,0,0-108.39-64.23-203.41,28.11,0,0-5.35-10.71,0-20.08,0,0-20.07,13.38-22.75,52.19L4.41,79S5.75,133.88,13.78,143.25Z" fill="#95b4c7"/>
		<path d="M242.34,165.89a252.25,252.25,0,0,0-48.51-2.26c-21.25,1.15-36.72,7.12-46,10.7-2.09.8-3.88,1.49-5.23,1.94a84.89,84.89,0,0,1-14.64,3,84,84,0,0,1-14.64-3c-1.35-.45-3.16-1.14-5.25-1.94-9.23-3.58-24.7-9.55-45.95-10.7a250.69,250.69,0,0,0-48.51,2.26,6,6,0,0,0,.76,12,6.28,6.28,0,0,0,1.15-.19l.47-.06c-.28,8.33,0,22.33,3.62,35.41,5.38,19.06,15.48,38.57,50.26,38.57,31.24,0,41.63-16.63,47.84-26.58.39-.63.77-1.23,1.13-1.79,6.65-10.4,6.63-19.73,6.61-20.76a6,6,0,0,0-5.85-5.83v-6.6c3.92.73,7,1,7.68,1.13h1.41c.71-.08,3.77-.4,7.69-1.13v6.6a6,6,0,0,0-5.86,5.83c0,1,0,10.36,6.62,20.75l1.13,1.8c6.21,10,16.6,26.58,47.82,26.58,34.8,0,44.93-19.51,50.24-38.59C240,200,240.24,186,239.94,177.62l.49.06a6,6,0,1,0,3.33-11.53l-.27-.07a5.53,5.53,0,0,0-1.15-.19ZM108.77,216.82c-.38.6-.79,1.24-1.2,1.9-5.53,8.85-13.09,21-37.7,21-25.3,0-33.57-11.43-38.71-29.86-3.48-12.48-3.44-26.41-3.11-33.57a241,241,0,0,1,33.45-.68c19.36,1,33.72,6.61,42.31,9.91,1.39.55,2.66,1,3.84,1.46v9.84a11.78,11.78,0,0,0,5.33,9.85A30.69,30.69,0,0,1,108.77,216.82Zm116.05-7c-5.14,18.43-13.41,29.86-38.73,29.86-24.59,0-32.15-12.11-37.68-21-.41-.66-.82-1.3-1.2-1.9a30.75,30.75,0,0,1-4.22-10.1,11.76,11.76,0,0,0,5.33-9.85v-9.9c1.16-.43,2.45-.92,3.84-1.46,8.58-3.3,23-8.86,42.31-9.91a240.65,240.65,0,0,1,33.43.68c.35,7.16.4,21.09-3.08,33.58Z"/>
		<path d="M77.6,223.22l3.19-3.4a1,1,0,0,0-.06-1.35l-12.43-11,12.43-11a.94.94,0,0,0,.07-1.33h0l-3.19-3.4a.94.94,0,0,0-1.32,0L60.14,206.82a.94.94,0,0,0-.06,1.31l.06.06,16.14,15.12a.93.93,0,0,0,1.31-.08Zm92.55,3.13L165.64,225A.87.87,0,0,1,165,224v0l10.09-34.76a.9.9,0,0,1,1.1-.61l4.51,1.31a.9.9,0,0,1,.61,1.1l-10.09,34.77a.88.88,0,0,1-1.1.6h0Zm19.49-3.08,16.12-15.11a.92.92,0,0,0,.06-1.31l-.06-.06-16.12-15.13a.93.93,0,0,0-1.31,0h0l-3.19,3.4a1,1,0,0,0,.06,1.35l12.42,11-12.42,11a1,1,0,0,0-.08,1.33h0l3.19,3.39a.93.93,0,0,0,1.32,0h0ZM287.09,40.42h57.6v10.8h-57.6Zm22.5,17h12.5v54.1h-12.5Zm41.7-17.3h11.4v26.5h.2q4.89-8.21,15.5-8.2,8.61,0,13.4,4.4,4.89,4.6,4.9,13.2v35.5h-11.4V79q-.41-11.59-10.1-11.6a11.64,11.64,0,0,0-9.1,3.9,14.28,14.28,0,0,0-3.4,9.7v30.5h-11.4Zm103.6,55a20.27,20.27,0,0,1-8.4,13,24.59,24.59,0,0,1-14.9,4.6q-12,0-18.8-7.6-6.51-7.31-6.5-19.6a39.33,39.33,0,0,1,.3-4.6h11.1V81h26.5a16.16,16.16,0,0,0-3.7-9.6,11.92,11.92,0,0,0-9.2-4.1q-8.61,0-12.2,7.6h-11a25,25,0,0,1,8.6-11.9,23.5,23.5,0,0,1,14.6-4.7,22.62,22.62,0,0,1,18.9,9.3q6.9,8.89,5.4,20.8h-37.9q0,6.6,3.4,10.7,3.69,4.6,10.5,4.6,9.51,0,12.5-8.6Zm-99,136.4h-8l-1.9-8.4q-8.88,10.09-21.5,10.1-15.5,0-25.1-11-9.11-10.5-9.1-26.4t9.1-26.3q9.6-11.1,25.1-11.1,12.12,0,20.4,6.2,8.82,6.6,10.2,18.2h-12.2a15,15,0,0,0-6.3-10.6,20.15,20.15,0,0,0-12.1-3.6q-10.68,0-16.6,8.5-5.1,7.4-5.1,18.7t5.1,18.7q5.89,8.5,16.6,8.5,9.51.19,14.7-5.2,5.1-5.1,5.3-14.4h-19v-9.5h30.4Zm58.2-16.4a20.27,20.27,0,0,1-8.4,13,24.59,24.59,0,0,1-14.9,4.6q-12,0-18.8-7.6-6.51-7.31-6.5-19.6a39.33,39.33,0,0,1,.3-4.6h11.1v.1h26.5a16.16,16.16,0,0,0-3.7-9.6,11.92,11.92,0,0,0-9.2-4.1q-8.61,0-12.2,7.6h-11a25,25,0,0,1,8.6-11.9,23.5,23.5,0,0,1,14.6-4.7,22.62,22.62,0,0,1,18.9,9.3q6.9,8.9,5.4,20.8h-37.9q0,6.6,3.4,10.7,3.69,4.6,10.5,4.6,9.49,0,12.5-8.6Zm55.6,0a20.27,20.27,0,0,1-8.4,13,24.59,24.59,0,0,1-14.9,4.6q-12,0-18.8-7.6-6.51-7.31-6.5-19.6a39.33,39.33,0,0,1,.3-4.6h11.1v.1H459a16.16,16.16,0,0,0-3.7-9.6,11.92,11.92,0,0,0-9.2-4.1q-8.61,0-12.2,7.6h-11a25,25,0,0,1,8.6-11.9,23.5,23.5,0,0,1,14.6-4.7,22.62,22.62,0,0,1,18.9,9.3q6.9,8.9,5.4,20.8h-37.9q0,6.6,3.4,10.7,3.69,4.6,10.5,4.6,9.51,0,12.5-8.6Zm9.7-55h11.4v40.6l20.6-20.9h14l-19.8,19,21.7,32.7h-13.9l-15.8-25.1-6.8,6.6v18.5h-11.4Zm47.7,19.7h12.5l13.5,38.6h.2l13.1-38.6h11.9l-20.1,54.5q-3.81,9.5-6,12.3-4.31,5.4-12.3,5.4a52.34,52.34,0,0,1-7.9-.6v-9.6a51.78,51.78,0,0,0,5.4.7q5.91,0,8-7.2l1.3-4Zm80.5-19.4h57.6v10.8h-57.6Zm22.5,17h12.5v54.1h-12.5Zm77.9,54.1h-11.2v-7.2h-.2q-4.61,8.6-14.7,8.6-19.29,0-19.3-20.3v-32.8H674v31.7q0,12.4,9.9,12.4,12.72,0,12.7-14.1v-30H708Zm6.8-51.7h8.6v-15.5h11.4v15.5h10.3v8.5h-10.3v27.6c0,2.67.26,4.43.8,5.3.74,1.2,2.3,1.8,4.7,1.8a20.9,20.9,0,0,0,4.8-.4v8.8a70.29,70.29,0,0,1-7.4.6q-8.4,0-11.5-3.4-2.61-2.7-2.8-9.8v-30.5h-8.6Zm74.5,36.4a22.53,22.53,0,0,0,2.4-10.6,21.07,21.07,0,0,0-3.5-12.4,13.73,13.73,0,0,0-22.4,0,21,21,0,0,0-3.5,12.4,21.29,21.29,0,0,0,3.5,12.5,12.84,12.84,0,0,0,11.2,5.8,13.34,13.34,0,0,0,8.6-2.9l7.2,7.2a26.25,26.25,0,0,1-15.8,4.7q-12.11,0-19.2-7.7-6.9-7.4-6.9-19.6,0-12,6.9-19.5,7.11-7.69,19.2-7.7t19.2,7.7q6.9,7.5,6.9,19.5,0,11.2-5.9,18.5Zm23.3-36.4h10.7v10h.2q1-4.31,5.5-7.8a15.31,15.31,0,0,1,9.6-3.6c.66,0,2.1.1,4.3.3v11a27.7,27.7,0,0,0-4.9-.5,12.52,12.52,0,0,0-9.9,4.5q-4.11,4.91-4.1,13.2v24.6h-11.4Z"/>
	</symbol>
	<symbol
		xmlns="http://www.w3.org/2000/svg" id="close-menu">
		<path d="M248,0C111,0,0,111,0,248S111,496,248,496,496,385,496,248,385,0,248,0Zm0,464C129.3,464,32,367.9,32,248,32,129.3,128.1,32,248,32c118.7,0,216,96.1,216,216C464,366.7,367.9,464,248,464Z" fill="#fff"/>
		<path d="M342.8,178.7,273.5,248l69.3,69.3a12,12,0,0,1,0,17l-8.5,8.5a12,12,0,0,1-17,0L248,273.5l-69.3,69.3a12,12,0,0,1-17,0l-8.5-8.5a12,12,0,0,1,0-17L222.5,248l-69.3-69.3a12,12,0,0,1,0-17l8.5-8.5a12,12,0,0,1,17,0L248,222.5l69.3-69.3a12,12,0,0,1,17,0l8.5,8.5a12.2,12.2,0,0,1,0,17Z" fill="#fff"/>
	</symbol>
	<!-- <div>Icons made by <a href="https://www.flaticon.com/authors/freepik" title="Freepik">Freepik</a> from <a href="https://www.flaticon.com/" title="Flaticon"> www.flaticon.com</a></div> -->
	<symbol
		xmlns="http://www.w3.org/2000/svg" id="home-icon">
		<path d="M498.23,222.7l0,0L289.33,13.81a47.13,47.13,0,0,0-66.66,0L13.92,222.55l-.21.22a47.11,47.11,0,0,0,31.37,80.3,14.08,14.08,0,0,0,1.45.07h8.32v153.7A55.23,55.23,0,0,0,110,512h81.71a15,15,0,0,0,15-15V376.5a25.21,25.21,0,0,1,25.18-25.17H280.1a25.2,25.2,0,0,1,25.17,25.17V497a15,15,0,0,0,15,15H402a55.23,55.23,0,0,0,55.17-55.16V303.14h7.72a47.14,47.14,0,0,0,33.36-80.44ZM477,268.12a17,17,0,0,1-12.11,5H442.15a15,15,0,0,0-15,15v168.7A25.19,25.19,0,0,1,402,482H335.27V376.5a55.23,55.23,0,0,0-55.17-55.17H231.91a55.24,55.24,0,0,0-55.18,55.17V482H110a25.2,25.2,0,0,1-25.17-25.16V288.14a15,15,0,0,0-15-15H47.53c-.24,0-.47,0-.71,0A17.12,17.12,0,0,1,35,243.88h0L243.89,35a17.13,17.13,0,0,1,24.23,0l208.8,208.8.09.09A17.17,17.17,0,0,1,477,268.12Z" transform="translate(-0.03)"/>
	</symbol>
	<!-- <div>Icons made by <a href="https://www.flaticon.com/authors/freepik" title="Freepik">Freepik</a> from <a href="https://www.flaticon.com/" title="Flaticon">www.flaticon.com</a></div> -->
	<symbol
		xmlns="http://www.w3.org/2000/svg" id="howtos-icon">
		<path d="M256.41-.4c-88,0-159.6,71.6-159.6,159.6a159.41,159.41,0,0,0,64.27,128v13.33a47,47,0,0,0-3.37,67.53,47.09,47.09,0,0,0,20.5,77.16,79.25,79.25,0,0,0,156.4,0,47.1,47.1,0,0,0,20.51-77.16,47,47,0,0,0-3.37-67.54V287.21A159.43,159.43,0,0,0,416,159.2C416,71.2,344.41-.4,256.41-.4Zm64.27,319.2a17.14,17.14,0,0,1,0,34.27H192.15a17.14,17.14,0,1,1,0-34.27ZM256.41,481.6a49.35,49.35,0,0,1-46.93-34.26h93.86A49.34,49.34,0,0,1,256.41,481.6Zm64.27-64.26H192.15a17.14,17.14,0,1,1,0-34.27H320.68a17.14,17.14,0,0,1,0,34.27ZM328.4,267a15,15,0,0,0-6.65,12.47v9.38c-.36,0-.71,0-1.07,0H303.54V229.68l21.54-21.53a15,15,0,1,0-21.21-21.22l-25.93,25.93a15,15,0,0,0-4.4,10.61V288.8H239.28V223.47a15,15,0,0,0-4.4-10.61L209,186.93a15,15,0,0,0-21.21,21.22l21.54,21.53v59.13H192.15l-1.07,0v-9.38A15,15,0,0,0,184.42,267a129.6,129.6,0,1,1,144,0Z"/>
		<path d="M62.54,159.2a15,15,0,0,0-15-15H15.41a15,15,0,0,0,0,30H47.54A15,15,0,0,0,62.54,159.2Z"/>
		<path d="M497.41,144.2H465.28a15,15,0,0,0,0,30h32.13a15,15,0,0,0,0-30Z"/>
		<path d="M68,250.65,40.2,266.71a15,15,0,1,0,15,26L83,276.63a15,15,0,1,0-15-26Z"/>
		<path d="M437.31,69.77a14.85,14.85,0,0,0,7.48-2l27.84-16.07a15,15,0,0,0-15-26L429.79,41.78a15,15,0,0,0,7.52,28Z"/>
		<path d="M472.62,266.71l-27.83-16.06a15,15,0,0,0-15,26l27.84,16.06a14.82,14.82,0,0,0,7.48,2,15,15,0,0,0,7.51-28Z"/>
		<path d="M83,41.78,55.2,25.72a15,15,0,1,0-15,26L68,67.76a15,15,0,0,0,20.49-5.49A15,15,0,0,0,83,41.78Z"/>
	</symbol>
	<symbol
		xmlns="http://www.w3.org/2000/svg" id="coding-icon">
		<path d="M175.62,477.87a16.76,16.76,0,0,1-5.82-1,17.12,17.12,0,0,1-10.17-21.92L320.38,11.26a17,17,0,1,1,32,11.7L191.62,466.61A17,17,0,0,1,175.62,477.87Z"/>
		<path d="M396.57,354.19a15,15,0,0,1-10.24-25.95l.2-.19,89.26-89.26-89.16-89.16a15,15,0,0,1,20-22.35c.37.31.75.67,1.09,1l99.89,99.88a15,15,0,0,1,0,21.21l-99.89,99.89c-.3.3-.61.59-.91.87A14.91,14.91,0,0,1,396.57,354.19Zm-9.46-204.13h0Zm0,0Z"/>
		<path d="M115.12,354.19a15,15,0,0,1-9.75-3.6c-.37-.31-.75-.67-1.09-1L4.39,249.69a15,15,0,0,1,0-21.21l99.89-99.89c.32-.32.62-.6.91-.87a15,15,0,1,1,20.48,21.91l-.21.2L36.21,239.08l89.16,89.16a15,15,0,0,1-10.25,25.95Zm9.79-26.36h0Zm0,0,0,0Z"/>
	</symbol>
	<symbol
		xmlns="http://www.w3.org/2000/svg" id="search-icon">
		<path d="M512,482a30,30,0,0,1-51.21,21.21L346.27,388.69l-21.41-21.41a186.05,186.05,0,0,0,22.52-19.1l.4-.4a186.44,186.44,0,0,0,19.5-22.92l21.41,21.41L503.21,460.79A29.88,29.88,0,0,1,512,482Z"/>
		<path d="M0,0V512H512V0ZM347.78,84.44c65.38,65.39,71.87,167.69,19.5,240.42a186.44,186.44,0,0,1-19.5,22.92l-.4.4a186.05,186.05,0,0,1-22.52,19.1c-72.72,52.38-175,45.87-240.41-19.51C12,275.31,11.85,157.48,84.05,84.85l.4-.4C157.05,11.85,275.18,11.84,347.78,84.44Z" fill="none"/>
		<path d="M368.92,63.3a216.1,216.1,0,0,0-305.62,0l-.35.35A216.12,216.12,0,0,0,216.12,432.23a214.48,214.48,0,0,0,130.15-43.54,220.61,220.61,0,0,0,22.3-19.41l.36-.35a219.74,219.74,0,0,0,19.76-22.66,216.18,216.18,0,0,0-19.77-283Zm-1.64,261.56a186.44,186.44,0,0,1-19.5,22.92l-.4.4a186.05,186.05,0,0,1-22.52,19.1c-72.72,52.38-175,45.87-240.41-19.51C12,275.31,11.85,157.48,84.05,84.85l.4-.4c72.6-72.6,190.73-72.61,263.33,0C413.16,149.83,419.65,252.13,367.28,324.86Z"/>
	</symbol>
	<symbol
		xmlns="http://www.w3.org/2000/svg" id="facebook-social-icon">
		<path d="M1024,512C1024,229.23,794.77,0,512,0S0,229.23,0,512c0,255.55,187.23,467.37,432,505.78V660H302V512H432V399.2C432,270.88,508.44,200,625.39,200c56,0,114.61,10,114.61,10V336H675.44c-63.6,0-83.44,39.47-83.44,80v96H734L711.3,660H592v357.78C836.77,979.37,1024,767.55,1024,512Z" fill="#fff"/>
		<path d="M711.3,660,734,512H592V416c0-40.49,19.84-80,83.44-80H740V210s-58.59-10-114.61-10C508.44,200,432,270.88,432,399.2V512H302V660H432v357.78a517.58,517.58,0,0,0,160,0V660Z" fill="none"/>
	</symbol>
	<symbol
		xmlns="http://www.w3.org/2000/svg" id="github-social-icon">
		<path d="M16.29,0a16.29,16.29,0,0,0-5.15,31.75c.82.15,1.11-.36,1.11-.79s0-1.41,0-2.77C7.7,29.18,6.74,26,6.74,26a4.36,4.36,0,0,0-1.81-2.39c-1.47-1,.12-1,.12-1a3.43,3.43,0,0,1,2.49,1.68,3.48,3.48,0,0,0,4.74,1.36,3.46,3.46,0,0,1,1-2.18c-3.62-.41-7.42-1.81-7.42-8a6.3,6.3,0,0,1,1.67-4.37,5.94,5.94,0,0,1,.16-4.31s1.37-.44,4.48,1.67a15.41,15.41,0,0,1,8.16,0c3.11-2.11,4.47-1.67,4.47-1.67A5.91,5.91,0,0,1,25,11.07a6.3,6.3,0,0,1,1.67,4.37c0,6.26-3.81,7.63-7.44,8a3.85,3.85,0,0,1,1.11,3c0,2.18,0,3.94,0,4.47s.29.94,1.12.78A16.29,16.29,0,0,0,16.29,0Z" fill="#fff" fill-rule="evenodd"/>
	</symbol>
	<svg
		xmlns="http://www.w3.org/2000/svg" id="instagram-social-icon">
		<path d="M251.92,45.39c67.27,0,75.23.26,101.8,1.47,24.56,1.12,37.9,5.22,46.78,8.67a78,78,0,0,1,29,18.85,78,78,0,0,1,18.85,29c3.45,8.88,7.55,22.22,8.67,46.78,1.21,26.57,1.47,34.53,1.47,101.8s-.26,75.23-1.47,101.8c-1.12,24.56-5.22,37.9-8.67,46.78a83.51,83.51,0,0,1-47.81,47.81c-8.88,3.45-22.22,7.55-46.78,8.67-26.56,1.21-34.53,1.47-101.8,1.47s-75.24-.26-101.8-1.47c-24.56-1.12-37.9-5.22-46.78-8.67a78,78,0,0,1-29-18.85,78,78,0,0,1-18.85-29c-3.45-8.88-7.55-22.22-8.67-46.78-1.21-26.57-1.47-34.53-1.47-101.8s.26-75.23,1.47-101.8c1.12-24.56,5.22-37.9,8.67-46.78a78,78,0,0,1,18.85-29,78,78,0,0,1,29-18.85c8.88-3.45,22.22-7.55,46.78-8.67,26.57-1.21,34.53-1.47,101.8-1.47m0-45.39c-68.42,0-77,.29-103.87,1.52S102.93,7,86.9,13.23A123.52,123.52,0,0,0,42.28,42.28a123.52,123.52,0,0,0-29,44.62C7,102.93,2.74,121.24,1.52,148.05S0,183.5,0,251.92s.29,77,1.52,103.87S7,400.91,13.23,416.94a123.52,123.52,0,0,0,29.05,44.62A123.68,123.68,0,0,0,86.9,490.62c16,6.22,34.34,10.48,61.15,11.71s35.45,1.51,103.87,1.51,77-.29,103.87-1.51,45.12-5.49,61.15-11.71a128.85,128.85,0,0,0,73.68-73.68c6.22-16,10.48-34.34,11.71-61.15s1.51-35.45,1.51-103.87-.29-77-1.51-103.87-5.49-45.12-11.71-61.15a123.68,123.68,0,0,0-29.06-44.62,123.52,123.52,0,0,0-44.62-29C400.91,7,382.6,2.74,355.79,1.52S320.34,0,251.92,0Z" fill="#fff"/>
		<path d="M251.92,122.56A129.37,129.37,0,1,0,381.29,251.92,129.35,129.35,0,0,0,251.92,122.56Zm0,213.33a84,84,0,1,1,84-84A84,84,0,0,1,251.92,335.89Z" fill="#fff"/>
		<circle cx="386.4" cy="117.44" r="30.23" fill="#fff"/>
	</svg>
	<symbol
		xmlns="http://www.w3.org/2000/svg" id="linkedin-social-icon">
		<path d="M109.47,109.47h-19V79.66c0-7.11-.12-16.26-9.9-16.26S69.1,71.14,69.1,79.14v30.33h-19V48.16H68.34v8.38h.26a20,20,0,0,1,18-9.9c19.29,0,22.85,12.69,22.85,29.2ZM28.58,39.78a11,11,0,1,1,11.05-11A11,11,0,0,1,28.58,39.78h0m9.52,69.69h-19V48.16H38.1ZM119,0H9.48A9.38,9.38,0,0,0,0,9.27V119.2a9.37,9.37,0,0,0,9.48,9.27H119a9.39,9.39,0,0,0,9.52-9.27V9.26A9.39,9.39,0,0,0,119,0" fill="#fff"/>
	</symbol>
	<symbol
		xmlns="http://www.w3.org/2000/svg" id="pinterest-social-icon">
		<path d="M121.5,0A121.54,121.54,0,0,0,77.2,234.7c-1.1-9.6-2-24.4.4-34.9,2.2-9.5,14.2-60.4,14.2-60.4a44.26,44.26,0,0,1-3.6-18c0-16.9,9.8-29.5,22-29.5,10.4,0,15.4,7.8,15.4,17.1,0,10.4-6.6,26-10.1,40.5-2.9,12.1,6.1,22,18,22,21.6,0,38.2-22.8,38.2-55.6,0-29.1-20.9-49.4-50.8-49.4C86.3,66.5,66,92.4,66,119.2c0,10.4,4,21.6,9,27.7a3.62,3.62,0,0,1,.8,3.5c-.9,3.8-3,12.1-3.4,13.8-.5,2.2-1.8,2.7-4.1,1.6-15.2-7.1-24.7-29.2-24.7-47.1,0-38.3,27.8-73.5,80.3-73.5,42.1,0,74.9,30,74.9,70.2,0,41.9-26.4,75.6-63,75.6-12.3,0-23.9-6.4-27.8-14l-7.6,28.9c-2.7,10.6-10.1,23.8-15.1,31.9A121.61,121.61,0,1,0,121.5,0Z" fill="#fff"/>
	</symbol>
	<symbol
		xmlns="http://www.w3.org/2000/svg" id="back-to-top-icon" >
		<path d="M275.9,108.88,503.76,336.74a28.14,28.14,0,0,1,0,39.8l-26.58,26.57a28.13,28.13,0,0,1-39.75.05L256,222.58,74.57,403.16a28.14,28.14,0,0,1-39.75,0L8.24,376.54a28.14,28.14,0,0,1,0-39.8L236.1,108.88a28.14,28.14,0,0,1,39.8,0Z"/>
	</symbol>
</svg>